# Exported from ProBuilder
# http://www.procore3d.com/probuilder
# 8/28/2018 1:29:35 AM

mtllib ./HighIncline.mtl
o HighIncline

g HighIncline
v -4 -9 -12
v -8 -12 -12
v -4 -5 -12
v -8 -8 -12
v -8 -12 -16
v -4 -9 -16
v -8 -8 -16
v -4 -5 -16
v -4 -5 -12
v -8 -8 -12
v -4 -5 -16
v -8 -8 -16
v -4 -9 -16
v -8 -12 -16
v -4 -9 -12
v -8 -12 -12

vn 0 0 -1
vn 0 0 -1
vn 0 0 -1
vn 0 0 -1
vn 0 0 1
vn 0 0 1
vn 0 0 1
vn 0 0 1
vn 0.6 -0.8 0
vn 0.6 -0.8 0
vn 0.6 -0.8 0
vn 0.6 -0.8 0
vn -0.6 0.8 0
vn -0.6 0.8 0
vn -0.6 0.8 0
vn -0.6 0.8 0

vt 0 3
vt 4 0
vt 0 7
vt 4 4
vt -4 0
vt 0 3
vt -4 4
vt 0 7
vt 4.2 0
vt -0.8 0
vt 4.2 -4
vt -0.8 -4
vt -1.8 -4
vt 3.2 -4
vt -1.8 0
vt 3.2 0

g HighIncline
usemtl Default_Prototype
f 1/1/1 2/2/2 4/4/4 3/3/3
f 5/5/5 6/6/6 8/8/8 7/7/7
f 9/9/9 10/10/10 12/12/12 11/11/11
f 13/13/13 14/14/14 16/16/16 15/15/15

