# Exported from ProBuilder
# http://www.procore3d.com/probuilder
# 8/29/2018 3:29:57 AM

mtllib ./Inner6.mtl
o Inner6

g Inner6
v -27 -2 44
v -28 -2 44
v -27 6 44
v -28 6 44
v -28 -2 43
v -28 -2 26
v -28 6 43
v -28 6 26
v -28 -2 26
v -27 -2 26
v -28 6 26
v -27 6 26
v -27 -2 26
v -27 -2 43
v -27 6 26
v -27 6 43
v -27 6 43
v -28 6 43
v -27 6 26
v -28 6 26
v -27 -2 26
v -28 -2 26
v -27 -2 43
v -28 -2 43
v -27 -2 43
v -28 -2 43
v -27 -2 44
v -28 -2 44
v -27 6 43
v -27 -2 43
v -27 6 44
v -27 -2 44
v -28 -2 43
v -28 6 43
v -28 -2 44
v -28 6 44
v -28 6 43
v -27 6 43
v -28 6 44
v -27 6 44

vn 0 0 1
vn 0 0 1
vn 0 0 1
vn 0 0 1
vn -1 0 0
vn -1 0 0
vn -1 0 0
vn -1 0 0
vn 0 0 -1
vn 0 0 -1
vn 0 0 -1
vn 0 0 -1
vn 1 0 0
vn 1 0 0
vn 1 0 0
vn 1 0 0
vn 0 1 0
vn 0 1 0
vn 0 1 0
vn 0 1 0
vn 0 -1 0
vn 0 -1 0
vn 0 -1 0
vn 0 -1 0
vn 0 -1 0
vn 0 -1 0
vn 0 -1 0
vn 0 -1 0
vn 1 0 0
vn 1 0 0
vn 1 0 0
vn 1 0 0
vn -1 0 0
vn -1 0 0
vn -1 0 0
vn -1 0 0
vn 0 1 0
vn 0 1 0
vn 0 1 0
vn 0 1 0

vt 0 0
vt -1 0
vt 0 8
vt -1 8
vt 16 0
vt -1 0
vt 16 8
vt -1 8
vt 1 0
vt 0 0
vt 1 8
vt 0 8
vt 1 0
vt -16 0
vt 1 8
vt -16 8
vt 0 16
vt 1 16
vt 0 -1
vt 1 -1
vt 0 -1
vt -1 -1
vt 0 16
vt -1 16
vt 0 16
vt -1 16
vt 0 17
vt -1 17
vt -16 8
vt -16 0
vt -17 8
vt -17 0
vt 16 0
vt 16 8
vt 17 0
vt 17 8
vt 1 16
vt 0 16
vt 1 17
vt 0 17

g Inner6
usemtl Default_Prototype
f 3/3/3 4/4/4 2/2/2 1/1/1
f 7/7/7 8/8/8 6/6/6 5/5/5
f 11/11/11 12/12/12 10/10/10 9/9/9
f 15/15/15 16/16/16 14/14/14 13/13/13
f 19/19/19 20/20/20 18/18/18 17/17/17
f 23/23/23 24/24/24 22/22/22 21/21/21
f 27/27/27 28/28/28 26/26/26 25/25/25
f 31/31/31 32/32/32 30/30/30 29/29/29
f 35/35/35 36/36/36 34/34/34 33/33/33
f 39/39/39 40/40/40 38/38/38 37/37/37

