# Exported from ProBuilder
# http://www.procore3d.com/probuilder
# 8/29/2018 3:30:29 AM

mtllib ./Inner9.mtl
o Inner9

g Inner9
v -66 -2 53
v -67 -2 53
v -66 6 53
v -67 6 53
v -67 -2 53
v -67 -2 52
v -67 6 53
v -67 6 52
v -67 -2 52
v -66 -2 52
v -67 6 52
v -66 6 52
v -27 -2 52
v -27 -2 53
v -27 6 52
v -27 6 53
v -66 6 53
v -67 6 53
v -66 6 52
v -67 6 52
v -66 -2 52
v -67 -2 52
v -66 -2 53
v -67 -2 53
v -66 -2 52
v -66 -2 53
v -27 -2 52
v -27 -2 53
v -66 6 52
v -66 -2 52
v -27 6 52
v -27 -2 52
v -66 -2 53
v -66 6 53
v -27 -2 53
v -27 6 53
v -66 6 53
v -66 6 52
v -27 6 53
v -27 6 52

vn 0 0 1
vn 0 0 1
vn 0 0 1
vn 0 0 1
vn -1 0 0
vn -1 0 0
vn -1 0 0
vn -1 0 0
vn 0 0 -1
vn 0 0 -1
vn 0 0 -1
vn 0 0 -1
vn 1 0 0
vn 1 0 0
vn 1 0 0
vn 1 0 0
vn 0 1 0
vn 0 1 0
vn 0 1 0
vn 0 1 0
vn 0 -1 0
vn 0 -1 0
vn 0 -1 0
vn 0 -1 0
vn 0 -1 0
vn 0 -1 0
vn 0 -1 0
vn 0 -1 0
vn 0 0 -1
vn 0 0 -1
vn 0 0 -1
vn 0 0 -1
vn 0 0 1
vn 0 0 1
vn 0 0 1
vn 0 0 1
vn 0 1 0
vn 0 1 0
vn 0 1 0
vn 0 1 0

vt 0 0
vt -1 0
vt 0 8
vt -1 8
vt 0 0
vt -1 0
vt 0 8
vt -1 8
vt 1 0
vt 0 0
vt 1 8
vt 0 8
vt 1 0
vt 0 0
vt 1 8
vt 0 8
vt 0 0
vt 1 0
vt 0 -1
vt 1 -1
vt 0 -1
vt -1 -1
vt 0 0
vt -1 0
vt 0 -1
vt 0 0
vt 39 -1
vt 39 0
vt 0 8
vt 0 0
vt -39 8
vt -39 0
vt 0 0
vt 0 8
vt 39 0
vt 39 8
vt 0 0
vt 0 -1
vt -39 0
vt -39 -1

g Inner9
usemtl Default_Prototype
f 3/3/3 4/4/4 2/2/2 1/1/1
f 7/7/7 8/8/8 6/6/6 5/5/5
f 11/11/11 12/12/12 10/10/10 9/9/9
f 15/15/15 16/16/16 14/14/14 13/13/13
f 19/19/19 20/20/20 18/18/18 17/17/17
f 23/23/23 24/24/24 22/22/22 21/21/21
f 27/27/27 28/28/28 26/26/26 25/25/25
f 31/31/31 32/32/32 30/30/30 29/29/29
f 35/35/35 36/36/36 34/34/34 33/33/33
f 39/39/39 40/40/40 38/38/38 37/37/37

