# Exported from ProBuilder
# http://www.procore3d.com/probuilder
# 8/29/2018 2:52:19 AM

mtllib ./Inner4.mtl
o Inner4

g Inner4
v 7 -2 -13
v 6 -2 -13
v 7 6 -13
v 6 6 -13
v -28 -2 -13
v -28 -2 -14
v -28 6 -13
v -28 6 -14
v 6 -2 -25
v 7 -2 -25
v 6 6 -25
v 7 6 -25
v 7 -2 -14
v 7 -2 -13
v 7 6 -14
v 7 6 -13
v 7 6 -13
v 6 6 -13
v 7 6 -14
v 6 6 -14
v 7 -2 -14
v 6 -2 -14
v 7 -2 -13
v 6 -2 -13
v 6 -2 -14
v 7 -2 -14
v 6 -2 -25
v 7 -2 -25
v 6 6 -14
v 6 -2 -14
v 6 6 -25
v 6 -2 -25
v 7 -2 -14
v 7 6 -14
v 7 -2 -25
v 7 6 -25
v 7 6 -14
v 6 6 -14
v 7 6 -25
v 6 6 -25
v 6 -2 -13
v 6 -2 -14
v -18 -2 -13
v -18 -2 -14
v 6 6 -13
v 6 -2 -13
v -18 6 -13
v -18 -2 -13
v 6 -2 -14
v 6 6 -14
v -18 -2 -14
v -18 6 -14
v 6 6 -14
v 6 6 -13
v -18 6 -14
v -18 6 -13
v -18 -2 -13
v -18 -2 -14
v -19 -2 -13
v -19 -2 -14
v -18 6 17
v -18 -2 17
v -19 6 17
v -19 -2 17
v -18 -2 -14
v -18 6 -14
v -19 -2 -14
v -19 6 -14
v -18 6 -14
v -18 6 -13
v -19 6 -14
v -19 6 -13
v -18 6 -13
v -18 -2 -13
v -18 6 8
v -18 -2 8
v -19 6 -13
v -18 6 -13
v -19 6 8
v -18 6 8
v -18 -2 -13
v -19 -2 -13
v -18 -2 8
v -19 -2 8
v -19 -2 -13
v -19 6 -13
v -19 -2 8
v -19 6 8
v 3 6 8
v 3 -2 8
v 3 6 9
v 3 -2 9
v -19 6 8
v -18 6 8
v -19 6 9
v -18 6 9
v -18 -2 8
v -19 -2 8
v -18 -2 9
v -19 -2 9
v -19 -2 8
v -19 6 8
v -19 -2 9
v -19 6 9
v -18 6 8
v -18 -2 8
v 3 6 8
v 3 -2 8
v -18 6 9
v -18 6 8
v 3 6 9
v 3 6 8
v -18 -2 8
v -18 -2 9
v 3 -2 8
v 3 -2 9
v -18 -2 9
v -18 6 9
v 3 -2 9
v 3 6 9
v -18 6 9
v -18 -2 9
v -18 6 16
v -18 -2 16
v -19 6 9
v -18 6 9
v -19 6 16
v -18 6 16
v -18 -2 9
v -19 -2 9
v -18 -2 16
v -19 -2 16
v -19 -2 9
v -19 6 9
v -19 -2 16
v -19 6 16
v -18 6 16
v -18 -2 16
v -18 6 17
v -18 -2 17
v -19 6 16
v -18 6 16
v -19 6 17
v -18 6 17
v -18 -2 16
v -19 -2 16
v -18 -2 17
v -19 -2 17
v -28 -2 16
v -28 6 16
v -28 -2 17
v -28 6 17
v -19 -2 16
v -19 6 16
v -27 -2 16
v -27 6 16
v -19 -2 17
v -19 -2 16
v -27 -2 17
v -27 -2 16
v -19 6 16
v -19 6 17
v -27 6 16
v -27 6 17
v -19 6 17
v -19 -2 17
v -27 6 17
v -27 -2 17
v -27 -2 -5
v -27 6 -5
v -28 -2 -5
v -28 6 -5
v -27 -2 17
v -27 -2 16
v -28 -2 17
v -28 -2 16
v -27 6 16
v -27 6 17
v -28 6 16
v -28 6 17
v -27 6 17
v -27 -2 17
v -28 6 17
v -28 -2 17
v -27 -2 16
v -27 6 16
v -27 -2 -4
v -27 6 -4
v -28 -2 16
v -27 -2 16
v -28 -2 -4
v -27 -2 -4
v -27 6 16
v -28 6 16
v -27 6 -4
v -28 6 -4
v -28 6 16
v -28 -2 16
v -28 6 -4
v -28 -2 -4
v -19 -2 -4
v -19 6 -4
v -19 -2 -5
v -19 6 -5
v -28 -2 -4
v -27 -2 -4
v -28 -2 -5
v -27 -2 -5
v -27 6 -4
v -28 6 -4
v -27 6 -5
v -28 6 -5
v -28 6 -4
v -28 -2 -4
v -28 6 -5
v -28 -2 -5
v -27 -2 -4
v -27 6 -4
v -19 -2 -4
v -19 6 -4
v -27 -2 -5
v -27 -2 -4
v -19 -2 -5
v -19 -2 -4
v -27 6 -4
v -27 6 -5
v -19 6 -4
v -19 6 -5
v -27 6 -5
v -27 -2 -5
v -19 6 -5
v -19 -2 -5
v -19 -2 -13
v -19 -2 -14
v -27 -2 -13
v -27 -2 -14
v -19 6 -13
v -19 -2 -13
v -27 6 -13
v -27 -2 -13
v -19 -2 -14
v -19 6 -14
v -27 -2 -14
v -27 6 -14
v -19 6 -14
v -19 6 -13
v -27 6 -14
v -27 6 -13
v -27 -2 -13
v -27 -2 -14
v -28 -2 -13
v -28 -2 -14
v -27 6 -13
v -27 -2 -13
v -28 6 -13
v -28 -2 -13
v -27 -2 -21
v -27 6 -21
v -28 -2 -21
v -28 6 -21
v -27 6 -14
v -27 6 -13
v -28 6 -14
v -28 6 -13
v -27 -2 -14
v -27 6 -14
v -27 -2 -20
v -27 6 -20
v -28 -2 -14
v -27 -2 -14
v -28 -2 -20
v -27 -2 -20
v -27 6 -14
v -28 6 -14
v -27 6 -20
v -28 6 -20
v -28 6 -14
v -28 -2 -14
v -28 6 -20
v -28 -2 -20
v -12 -2 -20
v -12 6 -20
v -12 -2 -21
v -12 6 -21
v -28 -2 -20
v -27 -2 -20
v -28 -2 -21
v -27 -2 -21
v -27 6 -20
v -28 6 -20
v -27 6 -21
v -28 6 -21
v -28 6 -20
v -28 -2 -20
v -28 6 -21
v -28 -2 -21
v -27 -2 -20
v -27 6 -20
v -13 -2 -20
v -13 6 -20
v -27 -2 -21
v -27 -2 -20
v -13 -2 -21
v -13 -2 -20
v -27 6 -20
v -27 6 -21
v -13 6 -20
v -13 6 -21
v -27 6 -21
v -27 -2 -21
v -13 6 -21
v -13 -2 -21
v -13 -2 -14
v -13 6 -14
v -12 -2 -14
v -12 6 -14
v -13 -2 -21
v -13 -2 -20
v -12 -2 -21
v -12 -2 -20
v -13 6 -20
v -13 6 -21
v -12 6 -20
v -12 6 -21
v -13 6 -21
v -13 -2 -21
v -12 6 -21
v -12 -2 -21
v -13 -2 -20
v -13 6 -20
v -13 -2 -14
v -13 6 -14
v -12 -2 -20
v -13 -2 -20
v -12 -2 -14
v -13 -2 -14
v -13 6 -20
v -12 6 -20
v -13 6 -14
v -12 6 -14
v -12 6 -20
v -12 -2 -20
v -12 6 -14
v -12 -2 -14

vn 0 0 1
vn 0 0 1
vn 0 0 1
vn 0 0 1
vn -1 0 0
vn -1 0 0
vn -1 0 0
vn -1 0 0
vn 0 0 -1
vn 0 0 -1
vn 0 0 -1
vn 0 0 -1
vn 1 0 0
vn 1 0 0
vn 1 0 0
vn 1 0 0
vn 0 1 0
vn 0 1 0
vn 0 1 0
vn 0 1 0
vn 0 -1 0
vn 0 -1 0
vn 0 -1 0
vn 0 -1 0
vn 0 -1 0
vn 0 -1 0
vn 0 -1 0
vn 0 -1 0
vn -1 0 0
vn -1 0 0
vn -1 0 0
vn -1 0 0
vn 1 0 0
vn 1 0 0
vn 1 0 0
vn 1 0 0
vn 0 1 0
vn 0 1 0
vn 0 1 0
vn 0 1 0
vn 0 -1 0
vn 0 -1 0
vn 0 -1 0
vn 0 -1 0
vn 0 0 1
vn 0 0 1
vn 0 0 1
vn 0 0 1
vn 0 0 -1
vn 0 0 -1
vn 0 0 -1
vn 0 0 -1
vn 0 1 0
vn 0 1 0
vn 0 1 0
vn 0 1 0
vn 0 -1 0
vn 0 -1 0
vn 0 -1 0
vn 0 -1 0
vn 0 0 1
vn 0 0 1
vn 0 0 1
vn 0 0 1
vn 0 0 -1
vn 0 0 -1
vn 0 0 -1
vn 0 0 -1
vn 0 1 0
vn 0 1 0
vn 0 1 0
vn 0 1 0
vn 1 0 0
vn 1 0 0
vn 1 0 0
vn 1 0 0
vn 0 1 0
vn 0 1 0
vn 0 1 0
vn 0 1 0
vn 0 -1 0
vn 0 -1 0
vn 0 -1 0
vn 0 -1 0
vn -1 0 0
vn -1 0 0
vn -1 0 0
vn -1 0 0
vn 1 0 0
vn 1 0 0
vn 1 0 0
vn 1 0 0
vn 0 1 0
vn 0 1 0
vn 0 1 0
vn 0 1 0
vn 0 -1 0
vn 0 -1 0
vn 0 -1 0
vn 0 -1 0
vn -1 0 0
vn -1 0 0
vn -1 0 0
vn -1 0 0
vn 0 0 -1
vn 0 0 -1
vn 0 0 -1
vn 0 0 -1
vn 0 1 0
vn 0 1 0
vn 0 1 0
vn 0 1 0
vn 0 -1 0
vn 0 -1 0
vn 0 -1 0
vn 0 -1 0
vn 0 0 1
vn 0 0 1
vn 0 0 1
vn 0 0 1
vn 1 0 0
vn 1 0 0
vn 1 0 0
vn 1 0 0
vn 0 1 0
vn 0 1 0
vn 0 1 0
vn 0 1 0
vn 0 -1 0
vn 0 -1 0
vn 0 -1 0
vn 0 -1 0
vn -1 0 0
vn -1 0 0
vn -1 0 0
vn -1 0 0
vn 1 0 0
vn 1 0 0
vn 1 0 0
vn 1 0 0
vn 0 1 0
vn 0 1 0
vn 0 1 0
vn 0 1 0
vn 0 -1 0
vn 0 -1 0
vn 0 -1 0
vn 0 -1 0
vn -1 0 0
vn -1 0 0
vn -1 0 0
vn -1 0 0
vn 0 0 -1
vn 0 0 -1
vn 0 0 -1
vn 0 0 -1
vn 0 -1 0
vn 0 -1 0
vn 0 -1 0
vn 0 -1 0
vn 0 1 0
vn 0 1 0
vn 0 1 0
vn 0 1 0
vn 0 0 1
vn 0 0 1
vn 0 0 1
vn 0 0 1
vn 0 0 -1
vn 0 0 -1
vn 0 0 -1
vn 0 0 -1
vn 0 -1 0
vn 0 -1 0
vn 0 -1 0
vn 0 -1 0
vn 0 1 0
vn 0 1 0
vn 0 1 0
vn 0 1 0
vn 0 0 1
vn 0 0 1
vn 0 0 1
vn 0 0 1
vn 1 0 0
vn 1 0 0
vn 1 0 0
vn 1 0 0
vn 0 -1 0
vn 0 -1 0
vn 0 -1 0
vn 0 -1 0
vn 0 1 0
vn 0 1 0
vn 0 1 0
vn 0 1 0
vn -1 0 0
vn -1 0 0
vn -1 0 0
vn -1 0 0
vn 1 0 0
vn 1 0 0
vn 1 0 0
vn 1 0 0
vn 0 -1 0
vn 0 -1 0
vn 0 -1 0
vn 0 -1 0
vn 0 1 0
vn 0 1 0
vn 0 1 0
vn 0 1 0
vn -1 0 0
vn -1 0 0
vn -1 0 0
vn -1 0 0
vn 0 0 1
vn 0 0 1
vn 0 0 1
vn 0 0 1
vn 0 -1 0
vn 0 -1 0
vn 0 -1 0
vn 0 -1 0
vn 0 1 0
vn 0 1 0
vn 0 1 0
vn 0 1 0
vn 0 0 -1
vn 0 0 -1
vn 0 0 -1
vn 0 0 -1
vn 0 -1 0
vn 0 -1 0
vn 0 -1 0
vn 0 -1 0
vn 0 0 1
vn 0 0 1
vn 0 0 1
vn 0 0 1
vn 0 0 -1
vn 0 0 -1
vn 0 0 -1
vn 0 0 -1
vn 0 1 0
vn 0 1 0
vn 0 1 0
vn 0 1 0
vn 0 -1 0
vn 0 -1 0
vn 0 -1 0
vn 0 -1 0
vn 0 0 1
vn 0 0 1
vn 0 0 1
vn 0 0 1
vn 0 0 -1
vn 0 0 -1
vn 0 0 -1
vn 0 0 -1
vn 0 1 0
vn 0 1 0
vn 0 1 0
vn 0 1 0
vn 1 0 0
vn 1 0 0
vn 1 0 0
vn 1 0 0
vn 0 -1 0
vn 0 -1 0
vn 0 -1 0
vn 0 -1 0
vn 0 1 0
vn 0 1 0
vn 0 1 0
vn 0 1 0
vn -1 0 0
vn -1 0 0
vn -1 0 0
vn -1 0 0
vn 1 0 0
vn 1 0 0
vn 1 0 0
vn 1 0 0
vn 0 -1 0
vn 0 -1 0
vn 0 -1 0
vn 0 -1 0
vn 0 1 0
vn 0 1 0
vn 0 1 0
vn 0 1 0
vn -1 0 0
vn -1 0 0
vn -1 0 0
vn -1 0 0
vn 0 0 1
vn 0 0 1
vn 0 0 1
vn 0 0 1
vn 0 -1 0
vn 0 -1 0
vn 0 -1 0
vn 0 -1 0
vn 0 1 0
vn 0 1 0
vn 0 1 0
vn 0 1 0
vn 0 0 -1
vn 0 0 -1
vn 0 0 -1
vn 0 0 -1
vn 0 0 1
vn 0 0 1
vn 0 0 1
vn 0 0 1
vn 0 -1 0
vn 0 -1 0
vn 0 -1 0
vn 0 -1 0
vn 0 1 0
vn 0 1 0
vn 0 1 0
vn 0 1 0
vn 0 0 -1
vn 0 0 -1
vn 0 0 -1
vn 0 0 -1
vn -1 0 0
vn -1 0 0
vn -1 0 0
vn -1 0 0
vn 0 -1 0
vn 0 -1 0
vn 0 -1 0
vn 0 -1 0
vn 0 1 0
vn 0 1 0
vn 0 1 0
vn 0 1 0
vn 1 0 0
vn 1 0 0
vn 1 0 0
vn 1 0 0

vt 0 0
vt -1 0
vt 0 8
vt -1 8
vt 0 0
vt -1 0
vt 0 8
vt -1 8
vt 1 0
vt 0 0
vt 1 8
vt 0 8
vt 1 0
vt 0 0
vt 1 8
vt 0 8
vt 0 0
vt 1 0
vt 0 -1
vt 1 -1
vt 0 -1
vt -1 -1
vt 0 0
vt -1 0
vt -1 -1
vt 0 -1
vt -1 -12
vt 0 -12
vt -1 8
vt -1 0
vt -12 8
vt -12 0
vt 1 0
vt 1 8
vt 12 0
vt 12 8
vt 0 -1
vt 1 -1
vt 0 -12
vt 1 -12
vt -1 0
vt -1 -1
vt -25 0
vt -25 -1
vt -1 8
vt -1 0
vt -25 8
vt -25 0
vt 1 0
vt 1 8
vt 25 0
vt 25 8
vt 1 -1
vt 1 0
vt 25 -1
vt 25 0
vt -25 0
vt -25 -1
vt -26 0
vt -26 -1
vt -25 8
vt -25 0
vt -26 8
vt -26 0
vt 25 0
vt 25 8
vt 26 0
vt 26 8
vt 25 -1
vt 25 0
vt 26 -1
vt 26 0
vt 0 8
vt 0 0
vt -21 8
vt -21 0
vt 26 0
vt 25 0
vt 26 21
vt 25 21
vt -25 0
vt -26 0
vt -25 21
vt -26 21
vt 0 0
vt 0 8
vt 21 0
vt 21 8
vt -21 8
vt -21 0
vt -22 8
vt -22 0
vt 26 21
vt 25 21
vt 26 22
vt 25 22
vt -25 21
vt -26 21
vt -25 22
vt -26 22
vt 21 0
vt 21 8
vt 22 0
vt 22 8
vt 25 8
vt 25 0
vt 4 8
vt 4 0
vt 25 22
vt 25 21
vt 4 22
vt 4 21
vt -25 21
vt -25 22
vt -4 21
vt -4 22
vt -25 0
vt -25 8
vt -4 0
vt -4 8
vt -22 8
vt -22 0
vt -29 8
vt -29 0
vt 26 22
vt 25 22
vt 26 29
vt 25 29
vt -25 22
vt -26 22
vt -25 29
vt -26 29
vt 22 0
vt 22 8
vt 29 0
vt 29 8
vt -29 8
vt -29 0
vt -30 8
vt -30 0
vt 26 29
vt 25 29
vt 26 30
vt 25 30
vt -25 29
vt -26 29
vt -25 30
vt -26 30
vt 29 0
vt 29 8
vt 30 0
vt 30 8
vt 26 0
vt 26 8
vt 34 0
vt 34 8
vt -26 30
vt -26 29
vt -34 30
vt -34 29
vt 26 29
vt 26 30
vt 34 29
vt 34 30
vt -26 8
vt -26 0
vt -34 8
vt -34 0
vt 34 0
vt 34 8
vt 35 0
vt 35 8
vt -34 30
vt -34 29
vt -35 30
vt -35 29
vt 34 29
vt 34 30
vt 35 29
vt 35 30
vt -34 8
vt -34 0
vt -35 8
vt -35 0
vt -29 0
vt -29 8
vt -9 0
vt -9 8
vt -35 29
vt -34 29
vt -35 9
vt -34 9
vt 34 29
vt 35 29
vt 34 9
vt 35 9
vt 29 8
vt 29 0
vt 9 8
vt 9 0
vt -9 0
vt -9 8
vt -8 0
vt -8 8
vt -35 9
vt -34 9
vt -35 8
vt -34 8
vt 34 9
vt 35 9
vt 34 8
vt 35 8
vt 9 8
vt 9 0
vt 8 8
vt 8 0
vt -34 0
vt -34 8
vt -26 0
vt -26 8
vt -34 8
vt -34 9
vt -26 8
vt -26 9
vt 34 9
vt 34 8
vt 26 9
vt 26 8
vt 34 8
vt 34 0
vt 26 8
vt 26 0
vt -26 0
vt -26 -1
vt -34 0
vt -34 -1
vt -26 8
vt -26 0
vt -34 8
vt -34 0
vt 26 0
vt 26 8
vt 34 0
vt 34 8
vt 26 -1
vt 26 0
vt 34 -1
vt 34 0
vt -34 0
vt -34 -1
vt -35 0
vt -35 -1
vt -34 8
vt -34 0
vt -35 8
vt -35 0
vt 34 0
vt 34 8
vt 35 0
vt 35 8
vt 34 -1
vt 34 0
vt 35 -1
vt 35 0
vt 1 0
vt 1 8
vt 7 0
vt 7 8
vt -35 -1
vt -34 -1
vt -35 -7
vt -34 -7
vt 34 -1
vt 35 -1
vt 34 -7
vt 35 -7
vt -1 8
vt -1 0
vt -7 8
vt -7 0
vt 7 0
vt 7 8
vt 8 0
vt 8 8
vt -35 -7
vt -34 -7
vt -35 -8
vt -34 -8
vt 34 -7
vt 35 -7
vt 34 -8
vt 35 -8
vt -7 8
vt -7 0
vt -8 8
vt -8 0
vt -34 0
vt -34 8
vt -20 0
vt -20 8
vt -34 -8
vt -34 -7
vt -20 -8
vt -20 -7
vt 34 -7
vt 34 -8
vt 20 -7
vt 20 -8
vt 34 8
vt 34 0
vt 20 8
vt 20 0
vt -20 0
vt -20 8
vt -19 0
vt -19 8
vt -20 -8
vt -20 -7
vt -19 -8
vt -19 -7
vt 20 -7
vt 20 -8
vt 19 -7
vt 19 -8
vt 20 8
vt 20 0
vt 19 8
vt 19 0
vt -7 0
vt -7 8
vt -1 0
vt -1 8
vt -19 -7
vt -20 -7
vt -19 -1
vt -20 -1
vt 20 -7
vt 19 -7
vt 20 -1
vt 19 -1
vt 7 8
vt 7 0
vt 1 8
vt 1 0

g Inner4
usemtl Default_Prototype
f 3/3/3 4/4/4 2/2/2 1/1/1
f 7/7/7 8/8/8 6/6/6 5/5/5
f 11/11/11 12/12/12 10/10/10 9/9/9
f 15/15/15 16/16/16 14/14/14 13/13/13
f 19/19/19 20/20/20 18/18/18 17/17/17
f 23/23/23 24/24/24 22/22/22 21/21/21
f 27/27/27 28/28/28 26/26/26 25/25/25
f 31/31/31 32/32/32 30/30/30 29/29/29
f 35/35/35 36/36/36 34/34/34 33/33/33
f 39/39/39 40/40/40 38/38/38 37/37/37
f 43/43/43 44/44/44 42/42/42 41/41/41
f 47/47/47 48/48/48 46/46/46 45/45/45
f 51/51/51 52/52/52 50/50/50 49/49/49
f 55/55/55 56/56/56 54/54/54 53/53/53
f 59/59/59 60/60/60 58/58/58 57/57/57
f 63/63/63 64/64/64 62/62/62 61/61/61
f 67/67/67 68/68/68 66/66/66 65/65/65
f 71/71/71 72/72/72 70/70/70 69/69/69
f 75/75/75 76/76/76 74/74/74 73/73/73
f 79/79/79 80/80/80 78/78/78 77/77/77
f 83/83/83 84/84/84 82/82/82 81/81/81
f 87/87/87 88/88/88 86/86/86 85/85/85
f 91/91/91 92/92/92 90/90/90 89/89/89
f 95/95/95 96/96/96 94/94/94 93/93/93
f 99/99/99 100/100/100 98/98/98 97/97/97
f 103/103/103 104/104/104 102/102/102 101/101/101
f 107/107/107 108/108/108 106/106/106 105/105/105
f 111/111/111 112/112/112 110/110/110 109/109/109
f 115/115/115 116/116/116 114/114/114 113/113/113
f 119/119/119 120/120/120 118/118/118 117/117/117
f 123/123/123 124/124/124 122/122/122 121/121/121
f 127/127/127 128/128/128 126/126/126 125/125/125
f 131/131/131 132/132/132 130/130/130 129/129/129
f 135/135/135 136/136/136 134/134/134 133/133/133
f 139/139/139 140/140/140 138/138/138 137/137/137
f 143/143/143 144/144/144 142/142/142 141/141/141
f 147/147/147 148/148/148 146/146/146 145/145/145
f 151/151/151 152/152/152 150/150/150 149/149/149
f 155/155/155 156/156/156 154/154/154 153/153/153
f 159/159/159 160/160/160 158/158/158 157/157/157
f 163/163/163 164/164/164 162/162/162 161/161/161
f 167/167/167 168/168/168 166/166/166 165/165/165
f 171/171/171 172/172/172 170/170/170 169/169/169
f 175/175/175 176/176/176 174/174/174 173/173/173
f 179/179/179 180/180/180 178/178/178 177/177/177
f 183/183/183 184/184/184 182/182/182 181/181/181
f 187/187/187 188/188/188 186/186/186 185/185/185
f 191/191/191 192/192/192 190/190/190 189/189/189
f 195/195/195 196/196/196 194/194/194 193/193/193
f 199/199/199 200/200/200 198/198/198 197/197/197
f 203/203/203 204/204/204 202/202/202 201/201/201
f 207/207/207 208/208/208 206/206/206 205/205/205
f 211/211/211 212/212/212 210/210/210 209/209/209
f 215/215/215 216/216/216 214/214/214 213/213/213
f 219/219/219 220/220/220 218/218/218 217/217/217
f 223/223/223 224/224/224 222/222/222 221/221/221
f 227/227/227 228/228/228 226/226/226 225/225/225
f 231/231/231 232/232/232 230/230/230 229/229/229
f 235/235/235 236/236/236 234/234/234 233/233/233
f 239/239/239 240/240/240 238/238/238 237/237/237
f 243/243/243 244/244/244 242/242/242 241/241/241
f 247/247/247 248/248/248 246/246/246 245/245/245
f 251/251/251 252/252/252 250/250/250 249/249/249
f 255/255/255 256/256/256 254/254/254 253/253/253
f 259/259/259 260/260/260 258/258/258 257/257/257
f 263/263/263 264/264/264 262/262/262 261/261/261
f 267/267/267 268/268/268 266/266/266 265/265/265
f 271/271/271 272/272/272 270/270/270 269/269/269
f 275/275/275 276/276/276 274/274/274 273/273/273
f 279/279/279 280/280/280 278/278/278 277/277/277
f 283/283/283 284/284/284 282/282/282 281/281/281
f 287/287/287 288/288/288 286/286/286 285/285/285
f 291/291/291 292/292/292 290/290/290 289/289/289
f 295/295/295 296/296/296 294/294/294 293/293/293
f 299/299/299 300/300/300 298/298/298 297/297/297
f 303/303/303 304/304/304 302/302/302 301/301/301
f 307/307/307 308/308/308 306/306/306 305/305/305
f 311/311/311 312/312/312 310/310/310 309/309/309
f 315/315/315 316/316/316 314/314/314 313/313/313
f 319/319/319 320/320/320 318/318/318 317/317/317
f 323/323/323 324/324/324 322/322/322 321/321/321
f 327/327/327 328/328/328 326/326/326 325/325/325
f 331/331/331 332/332/332 330/330/330 329/329/329
f 335/335/335 336/336/336 334/334/334 333/333/333
f 339/339/339 340/340/340 338/338/338 337/337/337
f 343/343/343 344/344/344 342/342/342 341/341/341

