# Exported from ProBuilder
# http://www.procore3d.com/probuilder
# 8/29/2018 2:52:08 AM

mtllib ./Inner3.mtl
o Inner3

g Inner3
v 14 -2 9
v 13 -2 9
v 14 6 9
v 13 6 9
v -9 -2 -4
v -9 -2 -5
v -9 6 -4
v -9 6 -5
v 13 -2 -5
v 14 -2 -5
v 13 6 -5
v 14 6 -5
v 14 -2 -5
v 14 -2 -4
v 14 6 -5
v 14 6 -4
v 14 6 -4
v 13 6 0
v 14 6 -5
v 13 6 -5
v 14 -2 -5
v 13 -2 -5
v 14 -2 -4
v 13 -2 0
v 14 -2 -4
v 13 -2 0
v 14 -2 8
v 13 -2 8
v 14 6 -4
v 14 -2 -4
v 14 6 8
v 14 -2 8
v 13 -2 0
v 13 6 0
v 13 -2 8
v 13 6 8
v 13 6 0
v 14 6 -4
v 13 6 8
v 14 6 8
v 13 -2 0
v 13 -2 -5
v -9 -2 0
v -9 -2 -5
v 13 6 0
v 13 -2 0
v -9 6 0
v -9 -2 0
v 13 -2 -5
v 13 6 -5
v -9 -2 -5
v -9 6 -5
v 13 6 -5
v 13 6 0
v -9 6 -5
v -9 6 0
v -9 -2 0
v -9 -2 -5
v -9 -2 -4
v -9 -2 -5
v -9 6 0
v -9 -2 0
v -10 6 0
v -10 -2 0
v -9 -2 -5
v -9 6 -5
v -9 -2 -5
v -9 6 -5
v -9 6 -5
v -9 6 0
v -9 6 -5
v -9 6 -4
v -9 6 0
v -9 -2 0
v -9 6 0
v -9 -2 0
v -9 6 -4
v -9 6 0
v -10 6 0
v -9 6 0
v -9 -2 0
v -9 -2 -4
v -9 -2 0
v -10 -2 0
v -9 -2 -4
v -9 6 -4
v -10 -2 0
v -10 6 0
v 14 -2 8
v 13 -2 8
v 14 -2 9
v 13 -2 9
v 14 6 8
v 14 -2 8
v 14 6 9
v 14 -2 9
v 13 -2 8
v 13 6 8
v 13 -2 9
v 13 6 9
v 13 6 8
v 14 6 8
v 13 6 9
v 14 6 9

vn 0 0 1
vn 0 0 1
vn 0 0 1
vn 0 0 1
vn -1 0 0
vn -1 0 0
vn -1 0 0
vn -1 0 0
vn 0 0 -1
vn 0 0 -1
vn 0 0 -1
vn 0 0 -1
vn 1 0 0
vn 1 0 0
vn 1 0 0
vn 1 0 0
vn 0 1 0
vn 0 1 0
vn 0 1 0
vn 0 1 0
vn 0 -1 0
vn 0 -1 0
vn 0 -1 0
vn 0 -1 0
vn 0 -1 0
vn 0 -1 0
vn 0 -1 0
vn 0 -1 0
vn 1 0 0
vn 1 0 0
vn 1 0 0
vn 1 0 0
vn -1 0 0
vn -1 0 0
vn -1 0 0
vn -1 0 0
vn 0 1 0
vn 0 1 0
vn 0 1 0
vn 0 1 0
vn 0 -0.9999999 0
vn 0 -0.9999999 0
vn 0 -0.9999999 0
vn 0 -0.9999999 0
vn 0 0 1
vn 0 0 1
vn 0 0 1
vn 0 0 1
vn 0 0 -1
vn 0 0 -1
vn 0 0 -1
vn 0 0 -1
vn 0 0.9999999 0
vn 0 0.9999999 0
vn 0 0.9999999 0
vn 0 0.9999999 0
vn 0 0 0
vn 0 0 0
vn 0 0 0
vn 0 0 0
vn 0 0 1
vn 0 0 1
vn 0 0 1
vn 0 0 1
vn 0 0 0
vn 0 0 0
vn 0 0 0
vn 0 0 0
vn 0 0 0
vn 0 0 0
vn 0 0 0
vn 0 0 0
vn 0 0 0
vn 0 0 0
vn 0 0 0
vn 0 0 0
vn 0 1 0
vn 0 0 0
vn 0 1 0
vn 0 1 0
vn 0 -1 0
vn 0 -1 0
vn 0 0 0
vn 0 -1 0
vn -0.9701425 0 -0.2425356
vn -0.9701425 0 -0.2425356
vn -0.9701425 0 -0.2425356
vn -0.9701425 0 -0.2425356
vn 0 -1 0
vn 0 -1 0
vn 0 -1 0
vn 0 -1 0
vn 1 0 0
vn 1 0 0
vn 1 0 0
vn 1 0 0
vn -1 0 0
vn -1 0 0
vn -1 0 0
vn -1 0 0
vn 0 1 0
vn 0 1 0
vn 0 1 0
vn 0 1 0

vt 0 0
vt -1 0
vt 0 8
vt -1 8
vt 0 0
vt -1 0
vt 0 8
vt -1 8
vt 1 0
vt 0 0
vt 1 8
vt 0 8
vt 1 0
vt 0 0
vt 1 8
vt 0 8
vt 0 0
vt 1 4
vt 0 -1
vt 1 -1
vt 0 -1
vt -1 -1
vt 0 0
vt -1 4
vt 0 0
vt -1 4
vt 0 12
vt -1 12
vt 0 8
vt 0 0
vt -12 8
vt -12 0
vt 4 0
vt 4 8
vt 12 0
vt 12 8
vt 1 4
vt 0 0
vt 1 12
vt 0 12
vt -1 4
vt -1 -1
vt -23 4
vt -23 -1
vt -1 8
vt -1 0
vt -23 8
vt -23 0
vt 1 0
vt 1 8
vt 23 0
vt 23 8
vt 1 -1
vt 1 4
vt 23 -1
vt 23 4
vt 0 0
vt 0 0
vt 0 0
vt 0 0
vt -23 8
vt -23 0
vt -24 8
vt -24 0
vt 0 0
vt 0 0
vt 0 0
vt 0 0
vt 0 0
vt 0 0
vt 0 0
vt 0 0
vt 0 0
vt 0 0
vt 0 0
vt 0 0
vt 23 0
vt 23 4
vt 24 4
vt 23 4
vt 0 0
vt 0 0
vt 0 0
vt 0 0
vt 5.57832 0
vt 5.57832 8
vt 9.701426 0
vt 9.701426 8
vt 0 12
vt -1 12
vt 0 13
vt -1 13
vt -12 8
vt -12 0
vt -13 8
vt -13 0
vt 12 0
vt 12 8
vt 13 0
vt 13 8
vt 1 12
vt 0 12
vt 1 13
vt 0 13

g Inner3
usemtl Default_Prototype
f 3/3/3 4/4/4 2/2/2 1/1/1
f 7/7/7 8/8/8 6/6/6 5/5/5
f 11/11/11 12/12/12 10/10/10 9/9/9
f 15/15/15 16/16/16 14/14/14 13/13/13
f 19/19/19 20/20/20 18/18/18 17/17/17
f 23/23/23 24/24/24 22/22/22 21/21/21
f 27/27/27 28/28/28 26/26/26 25/25/25
f 31/31/31 32/32/32 30/30/30 29/29/29
f 35/35/35 36/36/36 34/34/34 33/33/33
f 39/39/39 40/40/40 38/38/38 37/37/37
f 43/43/43 44/44/44 42/42/42 41/41/41
f 47/47/47 48/48/48 46/46/46 45/45/45
f 51/51/51 52/52/52 50/50/50 49/49/49
f 55/55/55 56/56/56 54/54/54 53/53/53
f 59/59/59 60/60/60 58/58/58 57/57/57
f 63/63/63 64/64/64 62/62/62 61/61/61
f 67/67/67 68/68/68 66/66/66 65/65/65
f 71/71/71 72/72/72 70/70/70 69/69/69
f 75/75/75 76/76/76 74/74/74 73/73/73
f 79/79/79 80/80/80 78/78/78 77/77/77
f 83/83/83 84/84/84 82/82/82 81/81/81
f 87/87/87 88/88/88 86/86/86 85/85/85
f 91/91/91 92/92/92 90/90/90 89/89/89
f 95/95/95 96/96/96 94/94/94 93/93/93
f 99/99/99 100/100/100 98/98/98 97/97/97
f 103/103/103 104/104/104 102/102/102 101/101/101

