# Exported from ProBuilder
# http://www.procore3d.com/probuilder
# 8/28/2018 1:29:39 AM

mtllib ./MidIncline.mtl
o MidIncline

g MidIncline
v -4 -10 -16
v -8 -12 -16
v -4 -6 -16
v -8 -8 -16
v -8 -12 -20
v -4 -10 -20
v -8 -8 -20
v -4 -6 -20
v -4 -6 -16
v -8 -8 -16
v -4 -6 -20
v -8 -8 -20
v -4 -10 -20
v -8 -12 -20
v -4 -10 -16
v -8 -12 -16

vn 0 0 -1
vn 0 0 -1
vn 0 0 -1
vn 0 0 -1
vn 0 0 1
vn 0 0 1
vn 0 0 1
vn 0 0 1
vn 0.4472136 -0.8944272 0
vn 0.4472136 -0.8944272 0
vn 0.4472136 -0.8944272 0
vn 0.4472136 -0.8944272 0
vn -0.4472136 0.8944272 0
vn -0.4472136 0.8944272 0
vn -0.4472136 0.8944272 0
vn -0.4472136 0.8944272 0

vt 0 2
vt 4 0
vt 0 6
vt 4 4
vt -4 0
vt 0 2
vt -4 4
vt 0 6
vt 2.683281 0
vt -1.788854 0
vt 2.683281 -4
vt -1.788854 -4
vt -0.8944272 -4
vt 3.577709 -4
vt -0.8944272 0
vt 3.577709 0

g MidIncline
usemtl Default_Prototype
f 1/1/1 2/2/2 4/4/4 3/3/3
f 5/5/5 6/6/6 8/8/8 7/7/7
f 9/9/9 10/10/10 12/12/12 11/11/11
f 13/13/13 14/14/14 16/16/16 15/15/15

